<?xml version="1.0" encoding="UTF-8" standalone="no"?>
<!DOCTYPE svg PUBLIC "-//W3C//DTD SVG 1.1//EN" "http://www.w3.org/Graphics/SVG/1.1/DTD/svg11.dtd">
<svg version="1.1" xmlns="http://www.w3.org/2000/svg" xmlns:xlink="http://www.w3.org/1999/xlink" preserveAspectRatio="xMidYMid meet" viewBox="159.15325812798605 158.43086949790396 208.98616667085705 127.29932668440827" width="204.99" height="123.3"><defs><path d="M268.49 159.53L269.21 159.65L269.92 159.82L270.61 160.04L271.27 160.29L271.92 160.59L272.54 160.93L273.14 161.31L273.71 161.72L274.25 162.17L274.76 162.65L275.24 163.16L275.69 163.7L276.1 164.27L276.48 164.87L276.81 165.49L277.11 166.13L277.37 166.8L277.58 167.49L277.75 168.19L277.88 168.92L277.95 169.66L277.98 170.41L277.98 174.07L270.87 174.07L270.87 171.87L270.82 171.02L270.67 170.19L270.44 169.4L270.12 168.65L269.73 167.95L269.26 167.29L268.72 166.7L268.13 166.16L267.47 165.69L266.77 165.3L266.02 164.98L265.23 164.75L264.4 164.6L263.55 164.55L261.45 164.55L260.59 164.6L259.77 164.75L258.98 164.98L258.23 165.3L257.52 165.69L256.87 166.16L256.27 166.7L255.74 167.29L255.27 167.95L254.87 168.65L254.55 169.4L254.32 170.19L254.18 171.02L254.13 171.87L254.13 174.07L247.02 174.07L247.02 170.41L247.04 169.66L247.12 168.92L247.24 168.19L247.41 167.49L247.63 166.8L247.88 166.13L248.18 165.49L248.52 164.87L248.89 164.27L249.31 163.7L249.75 163.16L250.23 162.65L250.75 162.17L251.29 161.72L251.86 161.31L252.46 160.93L253.08 160.59L253.72 160.29L254.39 160.04L255.08 159.82L255.78 159.65L256.51 159.53L257.24 159.46L258 159.43L267 159.43L267.75 159.46L268.49 159.53Z" id="c1y6nmJPm"></path><path d="M275.75 169.87C274.38 168.86 272.46 169.16 271.46 170.52C271.09 171.01 271.82 170.03 271.46 170.52C270.45 171.88 270.75 173.8 272.11 174.81C290.23 188.16 342.13 226.38 360.25 239.73C361.62 240.73 363.54 240.44 364.54 239.08C364.91 238.59 364.18 239.57 364.54 239.08C365.55 237.72 365.25 235.8 363.89 234.79C345.77 221.44 293.87 183.22 275.75 169.87Z" id="a2I7DJ3f06"></path><path d="M264.56 176.65L264.61 176.66L264.66 176.67L264.71 176.67L264.76 176.68L264.81 176.7L264.85 176.71L264.9 176.73L264.95 176.74L264.99 176.76L265.04 176.79L265.08 176.81L265.12 176.83L265.16 176.86L265.21 176.89L265.25 176.92L265.28 176.95L265.32 176.98L265.36 177.01L265.39 177.05L265.43 177.08L265.46 177.12L265.49 177.16L265.52 177.2L265.55 177.24L265.57 177.28L265.6 177.33L265.62 177.37L265.64 177.42L265.66 177.47L265.68 177.52L265.69 177.56L265.71 177.61L265.72 177.67L287.62 281.12L287.63 281.17L287.64 281.22L287.65 281.27L287.65 281.32L287.65 281.37L287.65 281.42L287.65 281.48L287.64 281.53L287.64 281.58L287.63 281.62L287.62 281.67L287.61 281.72L287.59 281.77L287.58 281.82L287.56 281.86L287.54 281.91L287.52 281.95L287.5 282L287.47 282.04L287.44 282.08L287.42 282.12L287.39 282.16L287.36 282.2L287.33 282.24L287.29 282.27L287.26 282.31L287.22 282.34L287.18 282.37L287.14 282.4L287.1 282.43L287.06 282.46L287.02 282.49L286.98 282.51L286.93 282.53L286.88 282.55L286.84 282.57L286.79 282.59L286.74 282.61L286.69 282.62L286.64 282.63L286.58 282.64L286.53 282.65L286.48 282.66L286.43 282.66L286.38 282.66L286.33 282.66L286.28 282.66L286.23 282.65L286.18 282.65L286.13 282.64L286.08 282.63L286.03 282.62L285.98 282.6L285.94 282.59L285.89 282.57L285.85 282.55L285.8 282.53L285.76 282.5L285.72 282.48L285.67 282.45L285.63 282.43L285.59 282.4L285.55 282.37L285.52 282.34L285.48 282.3L285.45 282.27L285.41 282.23L285.38 282.19L285.35 282.15L285.32 282.11L285.29 282.07L285.27 282.03L285.24 281.98L285.22 281.94L285.2 281.89L285.18 281.85L285.16 281.8L285.15 281.75L285.13 281.7L285.12 281.65L263.21 178.2L263.2 178.14L263.2 178.09L263.19 178.04L263.19 177.99L263.19 177.94L263.19 177.89L263.19 177.84L263.19 177.79L263.2 177.74L263.21 177.69L263.22 177.64L263.23 177.59L263.25 177.54L263.26 177.5L263.28 177.45L263.3 177.41L263.32 177.36L263.34 177.32L263.37 177.28L263.39 177.23L263.42 177.19L263.45 177.15L263.48 177.11L263.51 177.08L263.55 177.04L263.58 177.01L263.62 176.97L263.66 176.94L263.69 176.91L263.74 176.88L263.78 176.85L263.82 176.83L263.86 176.8L263.91 176.78L263.95 176.76L264 176.74L264.05 176.72L264.1 176.7L264.15 176.69L264.2 176.68L264.25 176.67L264.31 176.66L264.36 176.66L264.41 176.65L264.46 176.65L264.51 176.65L264.56 176.65ZM267.39 174.07L267.44 174.07L267.49 174.08L267.54 174.09L267.58 174.1L267.63 174.11L267.68 174.12L267.73 174.14L267.77 174.16L267.82 174.18L267.86 174.2L267.91 174.22L267.95 174.24L267.99 174.27L268.03 174.3L268.07 174.33L268.11 174.36L268.15 174.39L268.19 174.43L268.23 174.46L268.26 174.5L268.29 174.54L268.33 174.58L268.36 174.62L327.9 262.01L327.93 262.05L327.96 262.1L327.98 262.14L328 262.19L328.03 262.24L328.04 262.28L328.06 262.33L328.08 262.38L328.09 262.43L328.1 262.48L328.11 262.53L328.11 262.58L328.12 262.62L328.12 262.67L328.12 262.72L328.12 262.77L328.12 262.82L328.12 262.87L328.11 262.92L328.1 262.97L328.09 263.02L328.08 263.06L328.07 263.11L328.05 263.16L328.03 263.2L328.01 263.25L327.99 263.29L327.97 263.34L327.95 263.38L327.92 263.42L327.89 263.47L327.86 263.51L327.83 263.55L327.8 263.58L327.76 263.62L327.73 263.66L327.69 263.69L327.65 263.73L327.61 263.76L327.56 263.79L327.52 263.82L327.48 263.84L327.43 263.87L327.38 263.89L327.34 263.91L327.29 263.93L327.24 263.95L327.19 263.96L327.14 263.97L327.1 263.99L327.05 263.99L327 264L326.95 264.01L326.9 264.01L326.85 264.01L326.8 264.01L326.75 264.01L326.7 264L326.65 264L326.61 263.99L326.56 263.98L326.51 263.97L326.46 263.95L326.42 263.94L326.37 263.92L326.32 263.9L326.28 263.88L326.24 263.86L326.19 263.83L326.15 263.81L326.11 263.78L326.07 263.75L326.03 263.72L325.99 263.68L325.95 263.65L325.92 263.61L325.88 263.57L325.85 263.54L325.82 263.49L325.79 263.45L266.24 176.07L266.21 176.02L266.18 175.98L266.16 175.93L266.14 175.89L266.12 175.84L266.1 175.79L266.08 175.74L266.07 175.7L266.05 175.65L266.04 175.6L266.03 175.55L266.03 175.5L266.02 175.45L266.02 175.4L266.02 175.35L266.02 175.3L266.02 175.25L266.03 175.2L266.03 175.16L266.04 175.11L266.05 175.06L266.06 175.01L266.08 174.96L266.09 174.92L266.11 174.87L266.13 174.83L266.15 174.78L266.17 174.74L266.2 174.69L266.22 174.65L266.25 174.61L266.28 174.57L266.31 174.53L266.34 174.49L266.38 174.45L266.42 174.42L266.45 174.38L266.49 174.35L266.53 174.32L266.58 174.29L266.62 174.26L266.67 174.23L266.71 174.21L266.76 174.18L266.81 174.16L266.85 174.14L266.9 174.13L266.95 174.11L267 174.1L267.05 174.09L267.09 174.08L267.14 174.07L267.19 174.07L267.24 174.07L267.29 174.07L267.34 174.07L267.39 174.07Z" id="e512Fxj5U"></path><path d="M260.32 176.65L260.37 176.65L260.43 176.66L260.48 176.67L260.53 176.68L260.58 176.69L260.63 176.71L260.68 176.73L260.73 176.75L260.77 176.77L260.82 176.79L260.86 176.81L260.9 176.84L260.95 176.87L260.99 176.9L261.02 176.93L261.06 176.96L261.1 176.99L261.13 177.03L261.17 177.06L261.2 177.1L261.23 177.14L261.26 177.18L261.29 177.22L261.31 177.26L261.34 177.3L261.36 177.35L261.38 177.39L261.4 177.44L261.42 177.48L261.44 177.53L261.45 177.58L261.46 177.62L261.47 177.67L261.48 177.72L261.49 177.77L261.49 177.82L261.5 177.87L261.5 177.92L261.5 177.98L261.49 178.03L261.49 178.08L261.48 178.13L261.47 178.18L239.94 281.71L239.93 281.76L239.91 281.81L239.9 281.86L239.88 281.91L239.86 281.96L239.84 282L239.82 282.05L239.79 282.09L239.77 282.14L239.74 282.18L239.71 282.22L239.68 282.26L239.65 282.3L239.62 282.33L239.58 282.37L239.54 282.4L239.51 282.43L239.47 282.46L239.43 282.49L239.39 282.52L239.35 282.55L239.3 282.57L239.26 282.59L239.22 282.62L239.17 282.63L239.13 282.65L239.08 282.67L239.03 282.68L238.98 282.7L238.93 282.71L238.89 282.71L238.84 282.72L238.79 282.73L238.74 282.73L238.68 282.73L238.63 282.73L238.58 282.73L238.53 282.72L238.48 282.71L238.43 282.7L238.38 282.69L238.32 282.68L238.28 282.66L238.23 282.64L238.18 282.63L238.13 282.6L238.09 282.58L238.04 282.56L238 282.53L237.96 282.5L237.92 282.47L237.88 282.44L237.84 282.41L237.81 282.38L237.77 282.34L237.74 282.31L237.7 282.27L237.67 282.23L237.64 282.19L237.62 282.15L237.59 282.11L237.57 282.07L237.54 282.02L237.52 281.98L237.5 281.93L237.48 281.89L237.47 281.84L237.45 281.79L237.44 281.75L237.43 281.7L237.42 281.65L237.42 281.6L237.41 281.55L237.41 281.5L237.41 281.45L237.41 281.4L237.41 281.34L237.42 281.29L237.42 281.24L237.43 281.19L258.96 177.66L258.98 177.61L258.99 177.56L259.01 177.51L259.02 177.46L259.04 177.41L259.06 177.37L259.09 177.32L259.11 177.28L259.14 177.23L259.16 177.19L259.19 177.15L259.22 177.11L259.26 177.08L259.29 177.04L259.32 177L259.36 176.97L259.4 176.94L259.44 176.91L259.47 176.88L259.52 176.85L259.56 176.82L259.6 176.8L259.64 176.78L259.69 176.76L259.73 176.74L259.78 176.72L259.83 176.7L259.87 176.69L259.92 176.68L259.97 176.66L260.02 176.66L260.07 176.65L260.12 176.64L260.17 176.64L260.22 176.64L260.27 176.64L260.32 176.65ZM257.48 174.07L257.53 174.07L257.58 174.08L257.62 174.09L257.67 174.1L257.72 174.11L257.77 174.13L257.82 174.14L257.87 174.16L257.91 174.18L257.96 174.2L258 174.23L258.05 174.26L258.09 174.28L258.14 174.32L258.18 174.35L258.22 174.38L258.26 174.41L258.29 174.45L258.33 174.49L258.36 174.53L258.39 174.57L258.42 174.61L258.45 174.65L258.48 174.69L258.5 174.73L258.52 174.78L258.54 174.82L258.56 174.87L258.58 174.91L258.6 174.96L258.61 175.01L258.62 175.05L258.63 175.1L258.64 175.15L258.65 175.2L258.65 175.25L258.66 175.3L258.66 175.35L258.66 175.4L258.65 175.45L258.65 175.49L258.64 175.54L258.63 175.59L258.62 175.64L258.61 175.69L258.6 175.74L258.58 175.79L258.56 175.83L258.54 175.88L258.52 175.93L258.49 175.97L258.47 176.02L258.44 176.06L199.21 263.66L199.18 263.7L199.15 263.75L199.11 263.79L199.08 263.82L199.04 263.86L199.01 263.9L198.97 263.93L198.93 263.96L198.89 263.99L198.85 264.02L198.8 264.04L198.76 264.07L198.72 264.09L198.67 264.11L198.63 264.13L198.58 264.15L198.53 264.17L198.49 264.18L198.44 264.19L198.39 264.2L198.34 264.21L198.29 264.22L198.24 264.22L198.2 264.22L198.15 264.23L198.1 264.22L198.05 264.22L198 264.22L197.95 264.21L197.9 264.2L197.85 264.19L197.8 264.18L197.75 264.16L197.71 264.15L197.66 264.13L197.61 264.11L197.57 264.09L197.52 264.06L197.48 264.03L197.43 264.01L197.39 263.97L197.35 263.94L197.31 263.91L197.27 263.88L197.23 263.84L197.2 263.8L197.16 263.76L197.13 263.72L197.1 263.68L197.07 263.64L197.05 263.6L197.02 263.56L197 263.51L196.98 263.47L196.96 263.42L196.94 263.38L196.93 263.33L196.91 263.28L196.9 263.24L196.89 263.19L196.88 263.14L196.88 263.09L196.87 263.04L196.87 262.99L196.87 262.94L196.87 262.89L196.87 262.84L196.88 262.8L196.88 262.75L196.89 262.7L196.9 262.65L196.91 262.6L196.93 262.55L196.95 262.5L196.96 262.46L196.99 262.41L197.01 262.36L197.03 262.32L197.06 262.27L197.09 262.23L256.32 174.63L256.35 174.59L256.38 174.54L256.41 174.5L256.45 174.47L256.48 174.43L256.52 174.39L256.56 174.36L256.6 174.33L256.64 174.3L256.68 174.27L256.72 174.25L256.76 174.22L256.81 174.2L256.85 174.18L256.9 174.16L256.94 174.14L256.99 174.12L257.04 174.11L257.09 174.1L257.13 174.09L257.18 174.08L257.23 174.07L257.28 174.07L257.33 174.07L257.38 174.07L257.43 174.07L257.48 174.07Z" id="b1fUi7vNnN"></path><path d="M249.55 169.87C250.91 168.86 252.83 169.16 253.83 170.52C254.2 171.01 253.47 170.03 253.83 170.52C254.84 171.88 254.55 173.8 253.18 174.81C235.06 188.16 183.16 226.38 165.04 239.73C163.68 240.73 161.76 240.44 160.75 239.08C160.39 238.59 161.11 239.57 160.75 239.08C159.75 237.72 160.04 235.8 161.4 234.79C179.52 221.44 231.42 183.22 249.55 169.87Z" id="jktkAtChZ"></path></defs><g><g><use xlink:href="#c1y6nmJPm" opacity="1" fill="#ffffff" fill-opacity="1"></use><g><use xlink:href="#c1y6nmJPm" opacity="1" fill-opacity="0" stroke="#ffffff" stroke-width="2" stroke-opacity="1"></use></g></g><g><use xlink:href="#a2I7DJ3f06" opacity="1" fill="#ffffff" fill-opacity="1"></use><g><use xlink:href="#a2I7DJ3f06" opacity="1" fill-opacity="0" stroke="#ffffff" stroke-width="2" stroke-opacity="1"></use></g></g><g><use xlink:href="#e512Fxj5U" opacity="1" fill="#ffffff" fill-opacity="1"></use><g><use xlink:href="#e512Fxj5U" opacity="1" fill-opacity="0" stroke="#ffffff" stroke-width="1" stroke-opacity="1"></use></g></g><g><use xlink:href="#b1fUi7vNnN" opacity="1" fill="#ffffff" fill-opacity="1"></use><g><use xlink:href="#b1fUi7vNnN" opacity="1" fill-opacity="0" stroke="#ffffff" stroke-width="1" stroke-opacity="1"></use></g></g><g><use xlink:href="#jktkAtChZ" opacity="1" fill="#ffffff" fill-opacity="1"></use><g><use xlink:href="#jktkAtChZ" opacity="1" fill-opacity="0" stroke="#ffffff" stroke-width="2" stroke-opacity="1"></use></g></g></g></svg>