<?xml version="1.0" encoding="UTF-8" standalone="no"?>
<!DOCTYPE svg PUBLIC "-//W3C//DTD SVG 1.1//EN" "http://www.w3.org/Graphics/SVG/1.1/DTD/svg11.dtd">
<svg version="1.1" xmlns="http://www.w3.org/2000/svg" xmlns:xlink="http://www.w3.org/1999/xlink" preserveAspectRatio="xMidYMid meet" viewBox="237.04755076266412 143.6948915309356 132.26423291304332 150.59865058677252" width="128.26" height="146.6"><defs><path d="M295 144.83L297.03 145.02L299.06 145.28L301.07 145.62L303.07 146.03L305.06 146.53L307.03 147.1L308.97 147.74L310.89 148.46L312.79 149.26L314.66 150.13L316.5 151.08L318.31 152.1L320.08 153.19L321.81 154.36L323.51 155.61L325.16 156.92L326.77 158.31L328.33 159.78L329.84 161.31L331.3 162.92L332.7 164.6L334.04 166.34L335.29 168.12L336.46 169.92L337.55 171.77L338.56 173.64L339.49 175.54L340.33 177.46L341.09 179.41L341.78 181.38L342.38 183.36L342.9 185.36L343.35 187.38L343.71 189.4L344 191.44L344.2 193.48L344.33 195.52L344.38 197.57L344.35 199.61L344.24 201.65L344.06 203.68L343.79 205.71L343.46 207.72L343.04 209.72L342.55 211.71L341.98 213.67L341.33 215.62L340.61 217.54L339.82 219.44L338.94 221.31L338 223.15L336.98 224.96L335.88 226.73L334.71 228.46L333.47 230.16L332.15 231.81L330.76 233.42L329.69 234.56L365.51 279.25L365.62 279.4L365.72 279.54L365.81 279.69L365.89 279.84L365.97 279.99L366.04 280.15L366.1 280.31L366.15 280.47L366.2 280.63L366.23 280.79L366.27 280.95L366.29 281.12L366.3 281.28L366.31 281.45L366.31 281.62L366.3 281.78L366.29 281.95L366.27 282.11L366.24 282.27L366.2 282.43L366.16 282.59L366.11 282.75L366.05 282.91L365.98 283.06L365.91 283.21L365.83 283.36L365.75 283.5L365.65 283.64L365.55 283.78L365.44 283.91L365.33 284.04L365.21 284.17L365.08 284.29L364.94 284.4L357.34 290.49L357.2 290.6L357.06 290.7L356.91 290.79L356.76 290.87L356.61 290.95L356.45 291.02L356.29 291.08L356.13 291.13L355.97 291.18L355.81 291.22L355.64 291.25L355.48 291.27L355.31 291.29L355.15 291.29L354.98 291.29L354.82 291.29L354.65 291.27L354.49 291.25L354.33 291.22L354.17 291.18L354.01 291.14L353.85 291.09L353.69 291.03L353.54 290.97L353.39 290.89L353.24 290.81L353.1 290.73L352.96 290.63L352.82 290.53L352.68 290.42L352.56 290.31L352.43 290.19L352.31 290.06L352.2 289.92L316.08 244.86L315.44 245.21L313.54 246.13L311.61 246.98L309.66 247.74L307.7 248.42L305.71 249.03L303.71 249.55L301.69 249.99L299.67 250.36L297.63 250.64L295.59 250.85L293.55 250.98L291.51 251.03L289.46 251L287.42 250.89L285.39 250.7L283.37 250.44L281.35 250.1L279.35 249.69L277.37 249.19L275.4 248.62L273.45 247.98L271.53 247.26L269.63 246.46L267.76 245.59L265.92 244.64L264.12 243.62L262.35 242.53L260.61 241.36L258.92 240.12L257.26 238.8L255.66 237.41L254.1 235.94L252.59 234.41L251.13 232.8L249.72 231.12L248.39 229.38L247.13 227.61L245.96 225.8L244.87 223.95L243.87 222.08L242.94 220.18L242.1 218.26L241.33 216.31L240.65 214.34L240.05 212.36L239.52 210.36L239.08 208.34L238.71 206.32L238.43 204.28L238.22 202.24L238.1 200.2L238.05 198.15L238.08 196.11L238.18 194.07L238.37 192.04L238.63 190.01L238.97 188L239.39 186L239.88 184.01L240.45 182.05L241.09 180.1L241.81 178.18L242.61 176.28L243.48 174.41L244.43 172.57L245.45 170.76L246.54 168.99L247.71 167.26L248.96 165.56L250.28 163.91L251.67 162.3L253.13 160.74L254.67 159.23L256.28 157.77L257.96 156.37L259.69 155.03L261.47 153.78L263.28 152.61L265.12 151.52L266.99 150.51L268.89 149.59L270.81 148.74L272.76 147.98L274.73 147.3L276.72 146.69L278.72 146.17L280.73 145.73L282.76 145.36L284.79 145.08L286.83 144.87L288.87 144.74L290.92 144.69L292.96 144.72L295 144.83ZM288.07 159.89L286.61 160.04L285.15 160.25L283.7 160.51L282.26 160.82L280.83 161.2L279.4 161.63L277.99 162.12L276.6 162.67L275.22 163.27L273.86 163.94L272.52 164.66L271.2 165.44L269.9 166.28L268.63 167.18L267.39 168.13L266.18 169.14L265.03 170.18L263.93 171.27L262.88 172.38L261.88 173.54L260.94 174.72L260.05 175.93L259.21 177.18L258.42 178.45L257.69 179.74L257.01 181.06L256.39 182.4L255.82 183.76L255.3 185.14L254.84 186.53L254.43 187.94L254.08 189.36L253.78 190.8L253.54 192.24L253.35 193.69L253.22 195.15L253.14 196.61L253.12 198.07L253.16 199.54L253.25 201L253.39 202.46L253.6 203.92L253.86 205.37L254.18 206.81L254.55 208.25L254.98 209.67L255.47 211.08L256.02 212.48L256.63 213.85L257.29 215.22L258.01 216.56L258.79 217.88L259.63 219.17L260.53 220.44L261.48 221.69L262.49 222.89L263.54 224.05L264.62 225.15L265.74 226.2L266.89 227.19L268.07 228.14L269.29 229.03L270.53 229.86L271.8 230.65L273.09 231.38L274.41 232.06L275.75 232.68L277.11 233.25L278.49 233.77L279.88 234.23L281.29 234.64L282.71 234.99L284.15 235.29L285.59 235.53L287.04 235.72L288.5 235.85L289.96 235.93L291.42 235.95L292.89 235.92L294.35 235.83L295.81 235.68L297.27 235.48L298.72 235.21L300.17 234.9L301.6 234.52L303.02 234.09L304.43 233.6L305.83 233.05L307.21 232.45L308.57 231.78L309.91 231.06L311.23 230.28L312.52 229.44L313.8 228.54L315.04 227.59L316.25 226.58L317.4 225.54L318.5 224.45L319.55 223.34L320.54 222.18L321.49 221L322.38 219.79L323.22 218.54L324 217.27L324.73 215.98L325.41 214.66L326.04 213.32L326.61 211.96L327.12 210.58L327.59 209.19L327.99 207.78L328.35 206.36L328.64 204.93L328.89 203.48L329.08 202.03L329.21 200.57L329.28 199.11L329.31 197.65L329.27 196.18L329.18 194.72L329.03 193.26L328.83 191.8L328.57 190.35L328.25 188.91L327.87 187.47L327.44 186.05L326.95 184.64L326.4 183.24L325.8 181.87L325.14 180.51L324.41 179.16L323.63 177.84L322.8 176.55L321.9 175.28L320.94 174.03L319.93 172.83L318.89 171.67L317.81 170.57L316.69 169.53L315.54 168.53L314.35 167.59L313.14 166.69L311.9 165.86L310.63 165.07L309.33 164.34L308.01 163.66L306.67 163.04L305.31 162.47L303.94 161.95L302.54 161.49L301.13 161.08L299.71 160.73L298.28 160.43L296.83 160.19L295.38 160L293.93 159.87L292.47 159.79L291 159.77L289.54 159.8L288.07 159.89Z" id="ao8vmI9gW"></path></defs><g><g><use xlink:href="#ao8vmI9gW" opacity="1" fill="#464646" fill-opacity="1"></use><g><use xlink:href="#ao8vmI9gW" opacity="1" fill-opacity="0" stroke="#7a7a7a" stroke-width="0" stroke-opacity="1"></use></g></g></g></svg>